<svg width="72" height="12" viewBox="0 0 72 12" fill="none" xmlns="http://www.w3.org/2000/svg">
<g id="redstone-icon-black.svg" clip-path="url(#clip0_1_402)">
<path id="Vector" d="M48.4311 0.606445C45.6806 0.606445 43.5059 2.90915 43.5059 5.72356C43.5059 8.53798 45.7446 10.8407 48.4311 10.8407C51.1815 10.8407 53.3563 8.53798 53.3563 5.72356C53.4203 2.90915 51.1815 0.606445 48.4311 0.606445ZM48.4311 9.30553C46.5122 9.30553 45.041 7.70643 45.041 5.78751C45.041 3.86859 46.5761 2.26949 48.4311 2.26949C50.286 2.26949 51.8212 3.86859 51.8212 5.78751C51.8212 7.70643 50.35 9.30553 48.4311 9.30553Z" fill="black"/>
<path id="Vector_2" d="M65.7014 2.4614V4.95601H69.859V6.55511H65.7014V8.9857H70.4347V10.5848H64.1662V0.862305H70.4347V2.4614H65.7014Z" fill="black"/>
<path id="Vector_3" d="M62.2473 0.862305V10.6488H60.7761L56.4906 3.99655V10.6488H54.9554V0.862305H56.3626L56.5545 1.11818L60.7122 7.45062V0.862305H62.2473Z" fill="black"/>
<path id="Vector_4" d="M42.7383 0.862305V2.4614H39.732V10.5848H38.1969V2.4614H35.1906V0.862305H42.7383Z" fill="black"/>
<path id="Vector_5" d="M34.487 7.96226C34.487 8.85776 34.0392 9.62534 33.3996 10.1371C32.7599 10.6488 31.9284 10.9046 31.0329 10.9046C30.9689 10.9046 30.905 10.9046 30.841 10.9046C29.8816 10.8406 29.05 10.5208 28.4104 9.94513C27.8987 9.43342 27.5149 8.72983 27.4509 7.96226V7.89831V7.25867H28.986L29.05 7.77042C29.114 8.1542 29.3059 8.47402 29.5617 8.72988C29.8816 9.0497 30.3933 9.24154 31.0329 9.24154C31.6725 9.24154 32.1842 9.11363 32.5041 8.85777C32.8239 8.60192 33.0158 8.2821 33.0158 7.89831C33.0158 7.51453 32.8879 7.19473 32.4401 6.87491C32.0563 6.61905 31.4806 6.42714 31.0329 6.29921C31.0329 6.29921 30.9689 6.29923 30.9689 6.23527L30.7131 6.17132L30.5212 6.10729C30.0734 5.97936 29.4338 5.72354 28.8581 5.33976C28.1545 4.82804 27.7707 4.18844 27.8347 3.29294C27.8347 2.46141 28.2185 1.69379 28.9221 1.24605C29.5617 0.798298 30.3933 0.542442 31.2888 0.606406C32.696 0.67037 33.9113 1.43797 34.423 2.71725L34.5509 3.22891L33.0797 3.67671L32.9518 3.29294C32.696 2.6533 32.0563 2.26947 31.2248 2.20551C30.5851 2.20551 30.1374 2.33343 29.8176 2.52533C29.4977 2.78118 29.3698 3.03705 29.3698 3.42084C29.3698 3.54876 29.3698 3.67668 29.4338 3.8046C29.4978 3.93253 29.6257 4.06044 29.8176 4.18837C30.2013 4.44423 30.777 4.63614 31.3527 4.76406L31.4806 4.82801H31.5446C32.0563 5.0199 32.8239 5.21183 33.3996 5.65958C34.1032 6.17129 34.487 7.0028 34.487 7.96226Z" fill="black"/>
<path id="Vector_6" d="M21.4383 0.862305H18.368V10.6488H21.4383C24.0608 10.6488 26.1717 8.47399 26.1717 5.7875C26.1717 3.10101 24.0608 0.862305 21.4383 0.862305ZM21.4383 9.04972H19.9032V2.52535H21.4383C23.2293 2.52535 24.6365 3.99651 24.6365 5.7875C24.6365 7.57849 23.1653 9.04972 21.4383 9.04972Z" fill="black"/>
<path id="Vector_7" d="M11.7797 2.4614V4.95601H15.9374V6.55511H11.7797V8.9857H16.5131V10.5848H10.2446V0.862305H16.5131V2.4614H11.7797Z" fill="black"/>
<path id="Vector_8" d="M8.58156 10.6488H6.72659L4.74373 7.2587H2.24912L1.3536 5.6596H5.19144C6.02297 5.6596 6.72659 4.956 6.72659 4.0605C6.72659 3.16501 6.02297 2.4614 5.19144 2.4614H0.969837L0.0743256 0.862305H5.19144C6.85451 0.862305 8.19776 2.26953 8.19776 3.99655C8.19776 5.27583 7.49416 6.36322 6.40677 6.87493L8.58156 10.6488Z" fill="black"/>
<path id="Vector_9" d="M0.3302 8.66602H2.18517V10.0733V10.5849H0.3302V8.66602Z" fill="#E70000"/>
</g>
<defs>
<clipPath id="clip0_1_402">
<rect width="71" height="10.8739" fill="white" transform="translate(0.010376 0.606445)"/>
</clipPath>
</defs>
</svg>
